<svg width="150" height="150" viewBox="0 0 150 150" fill="none" xmlns="http://www.w3.org/2000/svg">
<g clip-path="url(#clip0_6_39)">
<rect width="150" height="150" fill="#2B5BE0"/>
<path d="M75 26.1064C70.166 26.1064 66.2256 22.166 66.2256 17.332V15.2373C66.2256 10.4033 70.166 6.46289 75 6.46289C79.834 6.46289 83.7744 10.4033 83.7744 15.2373V17.332C83.7598 22.166 79.834 26.1064 75 26.1064ZM75 7.98633C71.001 7.98633 67.749 11.2383 67.749 15.2373V17.332C67.749 21.3311 71.001 24.583 75 24.583C78.999 24.583 82.251 21.3311 82.251 17.332V15.2373C82.2363 11.2383 78.9844 7.98633 75 7.98633Z" fill="#986612"/>
<path d="M75.5127 39.4072H74.6631C71.1182 39.4072 68.2324 36.5068 68.2324 32.9766V22.459C68.2324 18.9141 71.1328 16.0283 74.6631 16.0283H75.5127C79.0576 16.0283 81.9434 18.9287 81.9434 22.459V32.9766C81.958 36.5068 79.0576 39.4072 75.5127 39.4072Z" fill="#D8962A"/>
<path d="M20.1709 82.6201C20.1709 97.185 25.9568 111.153 36.2557 121.452C46.5546 131.751 60.523 137.537 75.0879 137.537C89.6528 137.537 103.621 131.751 113.92 121.452C124.219 111.153 130.005 97.185 130.005 82.6201C130.005 68.0552 124.219 54.0869 113.92 43.7879C103.621 33.489 89.6528 27.7031 75.0879 27.7031C60.523 27.7031 46.5546 33.489 36.2557 43.7879C25.9568 54.0869 20.1709 68.0552 20.1709 82.6201Z" fill="#F6B13A"/>
<path d="M29.8096 82.6201C29.8096 88.5662 30.9807 94.454 33.2562 99.9474C35.5316 105.441 38.8668 110.432 43.0713 114.637C47.2758 118.841 52.2672 122.176 57.7606 124.452C63.2541 126.727 69.1419 127.898 75.0879 127.898C81.0339 127.898 86.9217 126.727 92.4152 124.452C97.9086 122.176 102.9 118.841 107.105 114.637C111.309 110.432 114.644 105.441 116.92 99.9474C119.195 94.454 120.366 88.5662 120.366 82.6201C120.366 76.6741 119.195 70.7863 116.92 65.2929C114.644 59.7994 111.309 54.808 107.105 50.6035C102.9 46.399 97.9086 43.0639 92.4152 40.7884C86.9217 38.513 81.0339 37.3418 75.0879 37.3418C69.1419 37.3418 63.2541 38.513 57.7606 40.7884C52.2672 43.0639 47.2758 46.399 43.0713 50.6035C38.8668 54.808 35.5316 59.7994 33.2562 65.2929C30.9807 70.7863 29.8096 76.6741 29.8096 82.6201Z" fill="#F35426"/>
<path d="M38.5107 82.6201C38.5107 87.4235 39.4568 92.1798 41.295 96.6176C43.1332 101.055 45.8274 105.088 49.2239 108.484C52.6204 111.881 56.6527 114.575 61.0904 116.413C65.5282 118.251 70.2845 119.197 75.0879 119.197C79.8913 119.197 84.6476 118.251 89.0854 116.413C93.5231 114.575 97.5553 111.881 100.952 108.484C104.348 105.088 107.043 101.055 108.881 96.6176C110.719 92.1798 111.665 87.4235 111.665 82.6201C111.665 72.9193 107.811 63.6157 100.952 56.7562C94.0923 49.8966 84.7888 46.043 75.0879 46.043C65.387 46.043 56.0835 49.8966 49.2239 56.7562C42.3644 63.6157 38.5107 72.9193 38.5107 82.6201Z" fill="#F4F4F4"/>
<path d="M45.8936 82.6201H31.9043C30.791 82.6201 29.8682 81.7119 29.8682 80.584C29.8682 79.4707 30.7764 78.5479 31.9043 78.5479H45.8936C47.0068 78.5479 47.9297 79.4561 47.9297 80.584C47.915 81.7119 47.0068 82.6201 45.8936 82.6201ZM77.0361 110.467V124.441C77.0361 125.555 76.1279 126.478 75 126.478C73.8867 126.478 72.9639 125.569 72.9639 124.441V110.452C72.9639 109.339 73.8721 108.416 75 108.416C76.1133 108.431 77.0361 109.339 77.0361 110.467ZM77.0361 40.5498V54.5391C77.0361 55.6523 76.1279 56.5752 75 56.5752C73.8867 56.5752 72.9639 55.667 72.9639 54.5391V40.5498C72.9639 39.4365 73.8721 38.5137 75 38.5137C76.1133 38.5137 77.0361 39.4365 77.0361 40.5498ZM118.652 82.6201H104.663C103.55 82.6201 102.627 81.7119 102.627 80.584C102.627 79.4707 103.535 78.5479 104.663 78.5479H118.652C119.766 78.5479 120.688 79.4561 120.688 80.584C120.688 81.7119 119.78 82.6201 118.652 82.6201Z" fill="#C9CCC7"/>
<path d="M70.9424 88.4063L52.1924 68.6162L78.4424 76.3506L70.9424 88.4063Z" fill="#EC5C3D"/>
<path d="M70.8838 88.3769L97.0313 96.0527L78.1934 76.2041L70.8838 88.3769Z" fill="#2E9DC7"/>
</g>
<defs>
<clipPath id="clip0_6_39">
<rect width="150" height="150" fill="white"/>
</clipPath>
</defs>
</svg>
